# xmcd
#
# Track frame offsets:
#	150
#	18302
#	34814
#	53886
#	69688
#	88062
#	112552
#	133014
#	154418
#	171420
#	185785
#	206329
#
# Disc length: 3032 seconds
#
# Revision: 0
# Processed by: cddbd v1.5.1PL0 Copyright (c) Steve Scherf et al.
# Submitted via: audiograbber 1.83.01
#
DISCID=a60bd60c
DTITLE=Tommy Castro - Can't Keep A Good Man Down
DYEAR=1997
DGENRE=Blues
TTITLE0=Can't Keep A Good Man Down
TTITLE1=You Knew The Job Was Dangerous
TTITLE2=Suitcase Full Of Blues
TTITLE3=You Gotta Do What You Gotta Do
TTITLE4=I Want To Show You
TTITLE5=My Time After Awhile
TTITLE6=Take The Highway Down
TTITLE7=High On The Hog
TTITLE8=You Only Go Around Once
TTITLE9=Nobody Loves Me Like My Baby
TTITLE10=Hycodan
TTITLE11=Can't You See What You're Doing To Me
EXTD=
EXTT0=
EXTT1=
EXTT2=
EXTT3=
EXTT4=
EXTT5=
EXTT6=
EXTT7=
EXTT8=
EXTT9=
EXTT10=
EXTT11=
PLAYORDER=
